<?xml version="1.0" encoding="UTF-8"?>
<!DOCTYPE svg PUBLIC "-//W3C//DTD SVG 1.1//EN" "http://www.w3.org/Graphics/SVG/1.1/DTD/svg11.dtd">
<svg xmlns="http://www.w3.org/2000/svg" version="1.1" width="974px" height="385px" style="shape-rendering:geometricPrecision; text-rendering:geometricPrecision; image-rendering:optimizeQuality; fill-rule:evenodd; clip-rule:evenodd" xmlns:xlink="http://www.w3.org/1999/xlink">
<g><path style="opacity:1" fill="#3c7880" d="M -0.5,-0.5 C 324.167,-0.5 648.833,-0.5 973.5,-0.5C 973.5,127.833 973.5,256.167 973.5,384.5C 648.833,384.5 324.167,384.5 -0.5,384.5C -0.5,256.167 -0.5,127.833 -0.5,-0.5 Z"/></g>
<g><path style="opacity:1" fill="#f8f4f0" d="M 326.5,364.5 C 326.5,351.167 326.5,337.833 326.5,324.5C 229.833,324.5 133.167,324.5 36.5,324.5C 36.5,243.5 36.5,162.5 36.5,81.5C 336.833,81.5 637.167,81.5 937.5,81.5C 937.5,162.5 937.5,243.5 937.5,324.5C 922.833,324.5 908.167,324.5 893.5,324.5C 893.5,337.833 893.5,351.167 893.5,364.5C 704.5,364.5 515.5,364.5 326.5,364.5 Z"/></g>
<g><path style="opacity:1" fill="#93b1b3" d="M 930.5,317.5 C 930.5,241.167 930.5,164.833 930.5,88.5C 634.833,88.5 339.167,88.5 43.5,88.5C 43.5,164.833 43.5,241.167 43.5,317.5C 137.833,317.5 232.167,317.5 326.5,317.5C 232.001,318.499 137.335,318.833 42.5,318.5C 42.5,241.5 42.5,164.5 42.5,87.5C 338.833,87.5 635.167,87.5 931.5,87.5C 931.833,164.335 931.499,241.002 930.5,317.5 Z"/></g>
<g><path style="opacity:1" fill="#3c7880" d="M 930.5,317.5 C 918.167,317.5 905.833,317.5 893.5,317.5C 893.5,305.5 893.5,293.5 893.5,281.5C 704.333,281.167 515.333,281.5 326.5,282.5C 326.5,294.167 326.5,305.833 326.5,317.5C 232.167,317.5 137.833,317.5 43.5,317.5C 43.5,241.167 43.5,164.833 43.5,88.5C 339.167,88.5 634.833,88.5 930.5,88.5C 930.5,164.833 930.5,241.167 930.5,317.5 Z"/></g>
<g><path style="opacity:1" fill="#578287" d="M 780.5,100.5 C 781.267,101.172 781.934,102.005 782.5,103C 780.444,103.311 778.444,103.811 776.5,104.5C 774.857,102.846 773.024,101.513 771,100.5C 769.93,100.528 769.097,100.861 768.5,101.5C 767.427,102.251 767.26,103.251 768,104.5C 769.487,105.155 770.653,106.155 771.5,107.5C 771.154,108.696 770.654,108.696 770,107.5C 769.536,108.094 769.369,108.761 769.5,109.5C 769.631,110.376 769.298,111.043 768.5,111.5C 763.881,111.38 761.381,109.046 761,104.5C 759.681,106.25 759.181,108.25 759.5,110.5C 758.35,109.15 757.683,109.316 757.5,111C 758.856,112.567 759.523,114.4 759.5,116.5C 762.066,116.344 764.566,116.678 767,117.5C 767.945,117.095 768.612,116.428 769,115.5C 768.816,118.797 770.316,120.797 773.5,121.5C 772.5,122.5 771.5,123.5 770.5,124.5C 769.914,124.291 769.414,123.957 769,123.5C 768.08,125.314 766.58,126.314 764.5,126.5C 761.825,127.627 759.158,127.793 756.5,127C 757.428,127.388 758.095,128.055 758.5,129C 757.66,130.171 756.827,131.338 756,132.5C 755.451,130.24 754.284,128.574 752.5,127.5C 750.695,126.091 748.695,125.591 746.5,126C 748.813,126.641 750.48,127.974 751.5,130C 751.056,131.762 750.556,131.595 750,129.5C 749.5,130.667 748.667,131.5 747.5,132C 748.784,133.297 748.617,134.464 747,135.5C 745.957,131.774 745.457,132.107 745.5,136.5C 744.448,136.351 743.448,136.517 742.5,137C 744.382,137.198 746.048,137.698 747.5,138.5C 744.024,139.812 742.357,142.479 742.5,146.5C 740.833,146.5 739.167,146.5 737.5,146.5C 737.216,148.877 737.216,151.044 737.5,153C 737,153.5 736.5,154 736,154.5C 734.989,153.663 733.822,153.33 732.5,153.5C 732.158,152.662 731.492,152.328 730.5,152.5C 729.833,151.5 729.167,150.5 728.5,149.5C 730.584,148.752 732.584,148.752 734.5,149.5C 736.519,148.867 736.853,147.867 735.5,146.5C 735.677,144.019 734.677,142.186 732.5,141C 733.337,139.989 733.67,138.822 733.5,137.5C 734.417,137.494 734.917,138.494 735,140.5C 735.483,139.552 735.649,138.552 735.5,137.5C 742.918,139.132 743.251,138.298 736.5,135C 737.252,134.329 737.586,133.496 737.5,132.5C 736.073,130.1 736.573,129.433 739,130.5C 739.9,129.23 741.066,128.23 742.5,127.5C 742.137,126.817 741.804,126.15 741.5,125.5C 742.787,123.363 743.621,121.03 744,118.5C 744.2,120.32 745.034,121.653 746.5,122.5C 748.496,124.333 750.829,124.833 753.5,124C 751.347,123.901 749.681,123.067 748.5,121.5C 748.47,120.503 748.97,119.836 750,119.5C 751.3,120.452 752.467,120.452 753.5,119.5C 749.358,116.937 749.691,115.104 754.5,114C 751.671,112.491 748.838,112.325 746,113.5C 746.019,111.893 746.185,110.226 746.5,108.5C 747.822,108.33 748.989,108.663 750,109.5C 750.47,108.423 750.303,107.423 749.5,106.5C 750.943,107.335 751.943,108.668 752.5,110.5C 753.527,111.791 754.527,111.791 755.5,110.5C 756.434,109.432 756.768,108.099 756.5,106.5C 755.5,106.5 754.5,106.5 753.5,106.5C 754.278,102.641 755.945,101.975 758.5,104.5C 759.428,102.665 760.594,102.332 762,103.5C 763.929,100.148 766.596,98.8145 770,99.5C 772.405,96.3724 775.405,95.3724 779,96.5C 779.21,98.0581 779.71,99.3915 780.5,100.5 Z"/></g>
<g><path style="opacity:1" fill="#75979b" d="M 790.5,100.5 C 790.5,101.5 790.5,102.5 790.5,103.5C 789.778,103.082 789.278,102.416 789,101.5C 787.519,104.11 786.352,106.777 785.5,109.5C 779.505,107.564 773.839,104.898 768.5,101.5C 769.097,100.861 769.93,100.528 771,100.5C 773.024,101.513 774.857,102.846 776.5,104.5C 778.444,103.811 780.444,103.311 782.5,103C 781.934,102.005 781.267,101.172 780.5,100.5C 780.821,98.9519 781.821,98.2852 783.5,98.5C 783.884,102.942 784.884,103.276 786.5,99.5C 785.437,97.634 786.104,97.134 788.5,98C 789.066,98.9947 789.733,99.828 790.5,100.5 Z"/></g>
<g><path style="opacity:1" fill="#9eb0b1" d="M 753.5,106.5 C 754.5,106.5 755.5,106.5 756.5,106.5C 756.768,108.099 756.434,109.432 755.5,110.5C 755.671,107.203 755.005,106.869 753.5,109.5C 752.224,108.386 752.224,107.386 753.5,106.5 Z"/></g>
<g><path style="opacity:1" fill="#a7b6b7" d="M 769.5,109.5 C 773.49,108.81 777.49,108.643 781.5,109C 776.991,108.848 773.325,110.515 770.5,114C 765.819,115.481 762.152,114.314 759.5,110.5C 759.181,108.25 759.681,106.25 761,104.5C 761.381,109.046 763.881,111.38 768.5,111.5C 769.298,111.043 769.631,110.376 769.5,109.5 Z"/></g>
<g><path style="opacity:1" fill="#6e8f92" d="M 800.5,102.5 C 801.404,103.209 801.737,104.209 801.5,105.5C 802.675,105.281 803.675,105.614 804.5,106.5C 801.75,107.006 801.916,108.34 805,110.5C 806.249,108.008 807.416,108.175 808.5,111C 806.005,111.157 803.672,111.324 801.5,111.5C 802.779,113.146 804.445,114.313 806.5,115C 803.697,118.122 804.364,119.789 808.5,120C 807.549,119.282 807.383,118.449 808,117.5C 808.915,118.328 809.581,119.328 810,120.5C 810.324,118.431 811.158,118.098 812.5,119.5C 813.971,118.619 814.804,117.286 815,115.5C 817.52,119.459 816.687,122.125 812.5,123.5C 810.337,122.28 808.17,122.28 806,123.5C 804.019,122.35 802.186,121.016 800.5,119.5C 800.762,118.022 800.429,116.689 799.5,115.5C 795.588,113.547 795.588,111.713 799.5,110C 798.944,109.617 798.611,109.117 798.5,108.5C 798.259,106.114 798.925,104.114 800.5,102.5 Z"/></g>
<g><path style="opacity:1" fill="#4b787e" d="M 790.5,103.5 C 790.851,105.869 791.018,108.203 791,110.5C 789.637,112.784 788.137,112.951 786.5,111C 787.308,110.692 787.975,110.192 788.5,109.5C 787.575,108.438 786.575,108.438 785.5,109.5C 786.352,106.777 787.519,104.11 789,101.5C 789.278,102.416 789.778,103.082 790.5,103.5 Z"/></g>
<g><path style="opacity:1" fill="#95acae" d="M 819.5,110.5 C 822.491,110.166 824.824,111.166 826.5,113.5C 825.325,113.281 824.325,113.614 823.5,114.5C 824.806,120.982 824.139,121.149 821.5,115C 822.647,113.719 822.313,113.386 820.5,114C 819.751,115.734 819.251,117.567 819,119.5C 816.966,116.375 817.132,113.375 819.5,110.5 Z"/></g>
<g><path style="opacity:1" fill="#92a8aa" d="M 790.5,103.5 C 791.117,103.611 791.617,103.944 792,104.5C 792.667,107.167 792.667,109.833 792,112.5C 791.25,113.126 790.416,113.626 789.5,114C 791.466,115.347 791.799,116.847 790.5,118.5C 790.607,116.621 790.107,116.288 789,117.5C 788.51,116.207 788.343,114.873 788.5,113.5C 787.5,113.5 786.5,113.5 785.5,113.5C 785.5,112.167 785.5,110.833 785.5,109.5C 786.575,108.438 787.575,108.438 788.5,109.5C 787.975,110.192 787.308,110.692 786.5,111C 788.137,112.951 789.637,112.784 791,110.5C 791.018,108.203 790.851,105.869 790.5,103.5 Z"/></g>
<g><path style="opacity:1" fill="#749599" d="M 749.5,106.5 C 750.303,107.423 750.47,108.423 750,109.5C 748.989,108.663 747.822,108.33 746.5,108.5C 746.185,110.226 746.019,111.893 746,113.5C 748.838,112.325 751.671,112.491 754.5,114C 749.691,115.104 749.358,116.937 753.5,119.5C 752.467,120.452 751.3,120.452 750,119.5C 748.97,119.836 748.47,120.503 748.5,121.5C 747.903,121.265 747.57,120.765 747.5,120C 748.615,118.607 749.115,117.107 749,115.5C 746.863,117.321 746.03,119.654 746.5,122.5C 745.034,121.653 744.2,120.32 744,118.5C 743.621,121.03 742.787,123.363 741.5,125.5C 739.914,126.148 738.247,126.648 736.5,127C 736.833,127.333 737.167,127.667 737.5,128C 734.303,128.239 731.636,127.072 729.5,124.5C 728.096,122.453 728.429,120.786 730.5,119.5C 730.833,119.833 731.167,120.167 731.5,120.5C 730.833,121.167 730.167,121.833 729.5,122.5C 730.274,123.711 731.107,123.711 732,122.5C 733,123.5 734,124.5 735,125.5C 734.782,123.413 734.949,121.413 735.5,119.5C 736.124,121.958 737.624,123.624 740,124.5C 741.496,121.351 742.996,118.184 744.5,115C 743.062,114.781 741.729,114.281 740.5,113.5C 741.274,112.289 742.107,112.289 743,113.5C 743.862,111.913 744.529,110.246 745,108.5C 746.11,106.963 747.61,106.297 749.5,106.5 Z"/></g>
<g><path style="opacity:1" fill="#6b8e92" d="M 815.5,104.5 C 814.778,104.918 814.278,105.584 814,106.5C 812.16,105.167 811.66,105.334 812.5,107C 815.803,108.612 819.136,108.778 822.5,107.5C 822.281,106.325 822.614,105.325 823.5,104.5C 826.109,105.23 828.776,105.73 831.5,106C 833.28,109.285 835.28,112.452 837.5,115.5C 838.59,114.609 838.59,113.609 837.5,112.5C 838.274,111.289 839.107,111.289 840,112.5C 842.188,115.902 843.688,119.568 844.5,123.5C 843.167,123.5 841.833,123.5 840.5,123.5C 840.36,121.876 841.027,120.71 842.5,120C 841.944,119.617 841.611,119.117 841.5,118.5C 837.919,116.761 835.252,117.761 833.5,121.5C 833.421,120.07 833.754,118.736 834.5,117.5C 834,117.167 833.5,116.833 833,116.5C 831.989,116.892 831.489,117.559 831.5,118.5C 829.479,117.145 827.812,115.479 826.5,113.5C 824.824,111.166 822.491,110.166 819.5,110.5C 817.066,110.352 814.399,110.186 811.5,110C 807.481,107.552 806.648,104.386 809,100.5C 809.923,101.759 810.757,103.092 811.5,104.5C 813.156,101.982 814.489,101.982 815.5,104.5 Z"/></g>
<g><path style="opacity:1" fill="#3d777f" d="M 768.5,101.5 C 773.839,104.898 779.505,107.564 785.5,109.5C 785.5,110.833 785.5,112.167 785.5,113.5C 786.5,113.5 787.5,113.5 788.5,113.5C 788.343,114.873 788.51,116.207 789,117.5C 790.107,116.288 790.607,116.621 790.5,118.5C 789.448,118.649 788.448,118.483 787.5,118C 786.897,115.929 785.564,114.762 783.5,114.5C 783.684,110.792 781.684,109.625 777.5,111C 773.944,113.918 773.61,117.085 776.5,120.5C 777.568,121.434 778.901,121.768 780.5,121.5C 780.025,118.918 780.692,116.918 782.5,115.5C 782.833,115.5 783.167,115.5 783.5,115.5C 783.786,119.82 785.786,121.153 789.5,119.5C 792.859,120.895 796.192,121.561 799.5,121.5C 800.298,121.043 800.631,120.376 800.5,119.5C 802.186,121.016 804.019,122.35 806,123.5C 808.17,122.28 810.337,122.28 812.5,123.5C 813.504,124.683 814.338,126.016 815,127.5C 815.333,126.5 815.667,125.5 816,124.5C 817.389,128.272 818.389,128.272 819,124.5C 820.117,125.949 820.784,127.616 821,129.5C 821.219,128.062 821.719,126.729 822.5,125.5C 822.833,125.667 823.167,125.833 823.5,126C 822.018,128.592 822.352,130.925 824.5,133C 827.046,134.44 829.713,135.606 832.5,136.5C 833.516,132.535 834.516,132.535 835.5,136.5C 834.527,138.068 834.36,139.735 835,141.5C 835.904,136.539 838.237,135.539 842,138.5C 842.687,140.92 842.187,143.087 840.5,145C 841.406,146.699 841.739,148.533 841.5,150.5C 842.675,150.281 843.675,150.614 844.5,151.5C 843.37,152.622 842.703,153.956 842.5,155.5C 845.217,160.315 847.55,165.315 849.5,170.5C 849.5,171.5 849.5,172.5 849.5,173.5C 849.881,174.931 850.881,175.764 852.5,176C 851.376,176.249 850.376,176.749 849.5,177.5C 850.529,177.296 851.529,177.796 852.5,179C 851.833,179.667 851.167,180.333 850.5,181C 851.738,180.923 852.738,181.089 853.5,181.5C 851.253,182.245 849.42,183.578 848,185.5C 847.768,189.769 847.602,194.103 847.5,198.5C 848.413,199.312 849.913,200.312 852,201.5C 852.667,202.5 852.667,203.5 852,204.5C 850.414,203.624 848.914,202.624 847.5,201.5C 847.167,201.833 846.833,202.167 846.5,202.5C 847.263,203.719 848.263,204.719 849.5,205.5C 847.653,206.83 846.153,206.497 845,204.5C 844.302,205.691 843.469,206.691 842.5,207.5C 841.549,208.919 841.216,210.585 841.5,212.5C 840.5,212.5 839.5,212.5 838.5,212.5C 837.986,214.698 836.986,216.698 835.5,218.5C 837.322,218.463 839.322,218.796 841.5,219.5C 841.824,220.812 842.491,221.645 843.5,222C 843.167,222.5 842.833,223 842.5,223.5C 840.25,221.202 837.584,220.369 834.5,221C 836.618,221.26 838.284,222.26 839.5,224C 837.744,224.14 836.078,223.64 834.5,222.5C 832.429,223.786 832.096,225.453 833.5,227.5C 835.35,226.758 836.016,225.758 835.5,224.5C 837.104,227.213 839.104,229.379 841.5,231C 838.936,233.897 836.77,237.063 835,240.5C 834.623,239.058 833.79,238.058 832.5,237.5C 832.804,236.85 833.137,236.183 833.5,235.5C 830.671,234.175 830.004,232.175 831.5,229.5C 833.017,230.911 834.351,230.744 835.5,229C 832.522,228.304 829.522,227.804 826.5,227.5C 825.725,231.182 827.059,233.682 830.5,235C 830.272,235.399 829.938,235.565 829.5,235.5C 828.5,235.5 827.5,235.5 826.5,235.5C 825.793,233.866 824.627,232.532 823,231.5C 822.047,233.592 820.714,233.925 819,232.5C 818.692,233.308 818.192,233.975 817.5,234.5C 816.232,233.572 814.899,233.405 813.5,234C 811.194,235.665 808.861,237.331 806.5,239C 809.215,239.875 810.548,241.708 810.5,244.5C 809.662,244.842 809.328,245.508 809.5,246.5C 808.078,247.925 806.411,248.925 804.5,249.5C 803.833,249.5 803.5,249.167 803.5,248.5C 804.537,246.262 804.703,243.929 804,241.5C 803.902,243.619 803.069,245.286 801.5,246.5C 800.851,244.376 800.017,242.376 799,240.5C 798.28,242.112 798.446,243.612 799.5,245C 799,245.167 798.5,245.333 798,245.5C 795.883,243.968 794.216,241.968 793,239.5C 793.4,242.968 794.9,245.968 797.5,248.5C 796.761,248.369 796.094,248.536 795.5,249C 796.167,250.333 797.167,251.333 798.5,252C 795.981,252.741 794.315,251.908 793.5,249.5C 792.492,247.456 791.492,245.456 790.5,243.5C 789.047,242.175 789.381,241.342 791.5,241C 790.101,240.405 788.768,240.572 787.5,241.5C 785.332,239.545 782.998,238.879 780.5,239.5C 779.548,240.533 779.548,241.7 780.5,243C 780.164,244.03 779.497,244.53 778.5,244.5C 778.919,241.675 777.919,239.509 775.5,238C 772.746,237.728 770.079,237.228 767.5,236.5C 765.767,234.108 763.434,233.275 760.5,234C 761.696,234.654 761.696,235.154 760.5,235.5C 759.719,234.271 759.219,232.938 759,231.5C 758.667,231.833 758.333,232.167 758,232.5C 757.208,230.413 756.041,228.579 754.5,227C 751.907,225.013 749.24,223.846 746.5,223.5C 745.813,221.726 744.98,220.059 744,218.5C 744.355,219.959 744.189,221.293 743.5,222.5C 742.054,223.613 740.387,223.78 738.5,223C 739.563,221.812 740.897,221.312 742.5,221.5C 742.101,218.029 740.601,217.696 738,220.5C 737.26,219.251 737.427,218.251 738.5,217.5C 741.878,217.583 742.378,215.916 740,212.5C 739.667,212.833 739.333,213.167 739,213.5C 738.722,212.584 738.222,211.918 737.5,211.5C 737.423,210.25 736.756,209.417 735.5,209C 736.554,207.612 736.72,206.112 736,204.5C 733.554,198.368 731.054,192.368 728.5,186.5C 728.082,185.778 727.416,185.278 726.5,185C 727.793,184.51 729.127,184.343 730.5,184.5C 730.64,182.876 729.973,181.71 728.5,181C 729.533,178.649 730.533,176.316 731.5,174C 731.62,170.255 731.287,166.421 730.5,162.5C 731.492,162.672 732.158,162.338 732.5,161.5C 734.273,158.324 733.273,156.657 729.5,156.5C 729.5,155.5 729.5,154.5 729.5,153.5C 730.5,153.5 731.5,153.5 732.5,153.5C 733.822,153.33 734.989,153.663 736,154.5C 736.5,154 737,153.5 737.5,153C 737.216,151.044 737.216,148.877 737.5,146.5C 739.167,146.5 740.833,146.5 742.5,146.5C 742.357,142.479 744.024,139.812 747.5,138.5C 749.213,137.365 749.88,135.698 749.5,133.5C 753.444,133.116 754.444,131.116 752.5,127.5C 754.284,128.574 755.451,130.24 756,132.5C 756.827,131.338 757.66,130.171 758.5,129C 758.095,128.055 757.428,127.388 756.5,127C 759.158,127.793 761.825,127.627 764.5,126.5C 766.58,126.314 768.08,125.314 769,123.5C 769.414,123.957 769.914,124.291 770.5,124.5C 771.5,123.5 772.5,122.5 773.5,121.5C 770.316,120.797 768.816,118.797 769,115.5C 768.612,116.428 767.945,117.095 767,117.5C 764.566,116.678 762.066,116.344 759.5,116.5C 759.523,114.4 758.856,112.567 757.5,111C 757.683,109.316 758.35,109.15 759.5,110.5C 762.152,114.314 765.819,115.481 770.5,114C 773.325,110.515 776.991,108.848 781.5,109C 777.49,108.643 773.49,108.81 769.5,109.5C 769.369,108.761 769.536,108.094 770,107.5C 770.654,108.696 771.154,108.696 771.5,107.5C 770.653,106.155 769.487,105.155 768,104.5C 767.26,103.251 767.427,102.251 768.5,101.5 Z"/></g>
<g><path style="opacity:1" fill="#92a9aa" d="M 783.5,114.5 C 783.5,114.833 783.5,115.167 783.5,115.5C 783.167,115.5 782.833,115.5 782.5,115.5C 781.105,113.7 779.439,113.366 777.5,114.5C 776.652,116.409 776.318,118.409 776.5,120.5C 773.61,117.085 773.944,113.918 777.5,111C 781.684,109.625 783.684,110.792 783.5,114.5 Z"/></g>
<g><path style="opacity:1" fill="#6a8a8d" d="M 782.5,115.5 C 780.692,116.918 780.025,118.918 780.5,121.5C 778.901,121.768 777.568,121.434 776.5,120.5C 776.318,118.409 776.652,116.409 777.5,114.5C 779.439,113.366 781.105,113.7 782.5,115.5 Z"/></g>
<g><path style="opacity:1" fill="#a9b9b9" d="M 841.5,118.5 C 837.513,118.652 836.013,120.652 837,124.5C 837.368,125.91 838.201,126.91 839.5,127.5C 841.009,125.085 842.676,124.919 844.5,127C 843.285,129.096 842.451,128.929 842,126.5C 841.727,129.833 843.227,132.167 846.5,133.5C 846.737,134.791 846.404,135.791 845.5,136.5C 845.586,135.504 845.252,134.671 844.5,134C 841.073,132.204 837.906,130.037 835,127.5C 833.872,125.655 833.372,123.655 833.5,121.5C 835.252,117.761 837.919,116.761 841.5,118.5 Z"/></g>
<g><path style="opacity:1" fill="#a8babb" d="M 748.5,121.5 C 749.681,123.067 751.347,123.901 753.5,124C 750.829,124.833 748.496,124.333 746.5,122.5C 746.03,119.654 746.863,117.321 749,115.5C 749.115,117.107 748.615,118.607 747.5,120C 747.57,120.765 747.903,121.265 748.5,121.5 Z"/></g>
<g><path style="opacity:1" fill="#9bb1b3" d="M 728.5,132.5 C 729.791,131.527 729.791,130.527 728.5,129.5C 729.5,128.167 730.5,128.167 731.5,129.5C 731.121,131.213 730.121,132.213 728.5,132.5 Z"/></g>
<g><path style="opacity:1" fill="#6f9195" d="M 865.5,147.5 C 861.82,143.493 858.486,143.827 855.5,148.5C 855.158,147.662 854.492,147.328 853.5,147.5C 856.443,144.82 856.11,144.153 852.5,145.5C 851.131,142.869 851.798,142.202 854.5,143.5C 855.5,143.167 856.167,142.5 856.5,141.5C 853.063,140.364 850.229,138.364 848,135.5C 847.67,141.338 846.837,141.671 845.5,136.5C 846.404,135.791 846.737,134.791 846.5,133.5C 846.999,129.51 847.499,125.51 848,121.5C 849.5,124.133 849.667,126.8 848.5,129.5C 849.531,130.7 850.365,132.034 851,133.5C 852,130.833 853,130.833 854,133.5C 854.959,130.596 855.459,127.929 855.5,125.5C 857.849,129.64 857.516,133.307 854.5,136.5C 855.247,136.736 856.08,137.07 857,137.5C 858.044,136.377 858.71,135.044 859,133.5C 859.5,135.5 860,137.5 860.5,139.5C 860.182,140.647 859.516,141.481 858.5,142C 861.938,141.865 864.772,143.032 867,145.5C 867.267,148.299 867.267,151.299 867,154.5C 866.56,152.134 866.06,149.801 865.5,147.5 Z"/></g>
<g><path style="opacity:1" fill="#7d9b9e" d="M 752.5,127.5 C 754.444,131.116 753.444,133.116 749.5,133.5C 749.88,135.698 749.213,137.365 747.5,138.5C 746.048,137.698 744.382,137.198 742.5,137C 743.448,136.517 744.448,136.351 745.5,136.5C 745.457,132.107 745.957,131.774 747,135.5C 748.617,134.464 748.784,133.297 747.5,132C 748.667,131.5 749.5,130.667 750,129.5C 750.556,131.595 751.056,131.762 751.5,130C 750.48,127.974 748.813,126.641 746.5,126C 748.695,125.591 750.695,126.091 752.5,127.5 Z"/></g>
<g><path style="opacity:1" fill="#7e9da0" d="M 737.5,132.5 C 737.586,133.496 737.252,134.329 736.5,135C 743.251,138.298 742.918,139.132 735.5,137.5C 735.649,138.552 735.483,139.552 735,140.5C 734.917,138.494 734.417,137.494 733.5,137.5C 733.167,137.5 732.833,137.5 732.5,137.5C 731.5,136.833 730.5,136.167 729.5,135.5C 734.933,136.187 735.599,135.021 731.5,132C 733.35,129.967 734.016,129.967 733.5,132C 734.793,132.49 736.127,132.657 737.5,132.5 Z"/></g>
<g><path style="opacity:1" fill="#a3b5b7" d="M 728.5,132.5 C 728.263,133.791 728.596,134.791 729.5,135.5C 730.5,136.167 731.5,136.833 732.5,137.5C 725.735,139.892 722.568,137.559 723,130.5C 723.615,128.884 724.615,127.551 726,126.5C 724.717,129.242 724.384,132.242 725,135.5C 725.667,136.167 726.333,136.833 727,137.5C 727.198,135.618 727.698,133.952 728.5,132.5 Z"/></g>
<g><path style="opacity:1" fill="#f6f3ef" d="M 98.5,140.5 C 108.682,139.752 118.348,141.585 127.5,146C 135.32,151.147 139.987,158.314 141.5,167.5C 134.841,168.498 128.175,169.498 121.5,170.5C 120.558,170.392 119.725,170.059 119,169.5C 117.417,159.297 111.584,155.463 101.5,158C 97.4228,160.755 94.9228,164.588 94,169.5C 93.3333,176.167 93.3333,182.833 94,189.5C 95.8247,205.244 103.491,209.244 117,201.5C 118.559,199.783 119.392,197.783 119.5,195.5C 115.154,195.666 110.821,195.499 106.5,195C 105.533,190.599 105.2,186.099 105.5,181.5C 117.747,181.178 129.914,181.512 142,182.5C 142.822,195.409 142.655,208.242 141.5,221C 139.167,221.667 136.833,221.667 134.5,221C 132.683,218.184 130.517,215.684 128,213.5C 116.84,222.787 104.34,224.954 90.5,220C 77.2603,213.716 69.7603,203.216 68,188.5C 65.3671,164.052 75.5338,148.052 98.5,140.5 Z"/></g>
<g><path style="opacity:1" fill="#f7f4f0" d="M 152.5,141.5 C 167.504,141.333 182.504,141.5 197.5,142C 221.729,145.958 228.229,158.791 217,180.5C 213.972,182.704 211.138,185.038 208.5,187.5C 212.723,197.613 217.223,207.613 222,217.5C 222.684,218.784 222.517,219.951 221.5,221C 213.5,221.667 205.5,221.667 197.5,221C 193.475,211.262 189.642,201.429 186,191.5C 183.174,189.66 180.007,188.994 176.5,189.5C 176.666,199.839 176.5,210.172 176,220.5C 168.253,221.482 160.42,221.815 152.5,221.5C 152.5,194.833 152.5,168.167 152.5,141.5 Z"/></g>
<g><path style="opacity:1" fill="#f5f2ef" d="M 232.5,141.5 C 252.836,141.333 273.169,141.5 293.5,142C 294.637,147.082 294.804,152.249 294,157.5C 293.5,158 293,158.5 292.5,159C 280.505,159.5 268.505,159.667 256.5,159.5C 256.203,163.767 256.536,167.934 257.5,172C 264.833,172.333 272.167,172.667 279.5,173C 280.833,178.667 280.833,184.333 279.5,190C 271.841,190.5 264.174,190.666 256.5,190.5C 256.5,194.833 256.5,199.167 256.5,203.5C 269.171,203.333 281.838,203.5 294.5,204C 295.833,209.667 295.833,215.333 294.5,221C 273.836,221.5 253.169,221.667 232.5,221.5C 232.5,194.833 232.5,168.167 232.5,141.5 Z"/></g>
<g><path style="opacity:1" fill="#f5f2ef" d="M 304.5,141.5 C 324.836,141.333 345.169,141.5 365.5,142C 366.637,147.082 366.804,152.249 366,157.5C 365.5,158 365,158.5 364.5,159C 352.505,159.5 340.505,159.667 328.5,159.5C 328.203,163.767 328.536,167.934 329.5,172C 336.833,172.333 344.167,172.667 351.5,173C 352.833,178.667 352.833,184.333 351.5,190C 343.841,190.5 336.174,190.666 328.5,190.5C 328.5,194.833 328.5,199.167 328.5,203.5C 341.171,203.333 353.838,203.5 366.5,204C 367.833,209.667 367.833,215.333 366.5,221C 345.836,221.5 325.169,221.667 304.5,221.5C 304.5,194.833 304.5,168.167 304.5,141.5 Z"/></g>
<g><path style="opacity:1" fill="#f7f3f0" d="M 425.5,179.5 C 425.56,180.043 425.893,180.376 426.5,180.5C 427.499,168.185 427.832,155.851 427.5,143.5C 427.611,142.883 427.944,142.383 428.5,142C 434.491,141.501 440.491,141.334 446.5,141.5C 446.5,168.167 446.5,194.833 446.5,221.5C 440.158,221.666 433.825,221.5 427.5,221C 417.455,207.078 407.289,193.244 397,179.5C 396.667,193.167 396.333,206.833 396,220.5C 389.59,221.478 383.09,221.811 376.5,221.5C 376.5,194.833 376.5,168.167 376.5,141.5C 383.841,141.334 391.174,141.5 398.5,142C 407.632,154.441 416.632,166.941 425.5,179.5 Z"/></g>
<g><path style="opacity:1" fill="#f8f4f0" d="M 456.5,141.5 C 479.169,141.333 501.836,141.5 524.5,142C 525.473,147.407 525.807,152.907 525.5,158.5C 517.833,158.5 510.167,158.5 502.5,158.5C 502.667,179.169 502.5,199.836 502,220.5C 494.253,221.482 486.42,221.815 478.5,221.5C 478.667,200.831 478.5,180.164 478,159.5C 470.587,158.519 463.087,158.186 455.5,158.5C 455.214,152.741 455.548,147.075 456.5,141.5 Z"/></g>
<g><path style="opacity:1" fill="#f5f2ef" d="M 534.5,141.5 C 554.836,141.333 575.169,141.5 595.5,142C 596.637,147.082 596.804,152.249 596,157.5C 595.5,158 595,158.5 594.5,159C 582.505,159.5 570.505,159.667 558.5,159.5C 558.203,163.767 558.536,167.934 559.5,172C 566.833,172.333 574.167,172.667 581.5,173C 582.833,178.667 582.833,184.333 581.5,190C 573.841,190.5 566.174,190.666 558.5,190.5C 558.5,194.833 558.5,199.167 558.5,203.5C 571.171,203.333 583.838,203.5 596.5,204C 597.833,209.667 597.833,215.333 596.5,221C 575.836,221.5 555.169,221.667 534.5,221.5C 534.5,194.833 534.5,168.167 534.5,141.5 Z"/></g>
<g><path style="opacity:1" fill="#f6f3ef" d="M 604.5,141.5 C 612.507,141.334 620.507,141.5 628.5,142C 632.971,148.451 637.304,154.951 641.5,161.5C 645.696,154.951 650.029,148.451 654.5,142C 661.414,141.189 668.248,141.355 675,142.5C 675.315,143.908 674.982,145.241 674,146.5C 667.036,156.931 660.203,167.431 653.5,178C 662.167,191.667 670.833,205.333 679.5,219C 679.355,219.772 679.022,220.439 678.5,221C 670.5,221.667 662.5,221.667 654.5,221C 649.333,213.167 644.167,205.333 639,197.5C 634.041,205.25 629.208,213.083 624.5,221C 617.508,221.5 610.508,221.666 603.5,221.5C 603.46,218.575 604.293,215.909 606,213.5C 613.215,202.903 620.048,192.07 626.5,181C 619.411,168.91 611.911,157.076 604,145.5C 603.421,144.072 603.588,142.738 604.5,141.5 Z"/></g>
<g><path style="opacity:1" fill="#69959b" d="M 427.5,143.5 C 427.832,155.851 427.499,168.185 426.5,180.5C 425.893,180.376 425.56,180.043 425.5,179.5C 426.167,167.5 426.833,155.5 427.5,143.5 Z"/></g>
<g><path style="opacity:1" fill="#94abac" d="M 865.5,147.5 C 863,146.11 860.667,146.277 858.5,148C 861.038,149.24 863.038,151.073 864.5,153.5C 864.167,154.167 863.833,154.833 863.5,155.5C 861.974,154.094 860.307,152.928 858.5,152C 860.645,151.257 860.811,150.424 859,149.5C 856.799,150.962 856.133,152.962 857,155.5C 858.011,154.663 859.178,154.33 860.5,154.5C 860.587,157.598 860.087,157.932 859,155.5C 857.812,156.563 857.312,157.897 857.5,159.5C 856.778,159.082 856.278,158.416 856,157.5C 855.502,154.518 855.335,151.518 855.5,148.5C 858.486,143.827 861.82,143.493 865.5,147.5 Z"/></g>
<g><path style="opacity:1" fill="#8ea6a9" d="M 735.5,146.5 C 736.853,147.867 736.519,148.867 734.5,149.5C 732.584,148.752 730.584,148.752 728.5,149.5C 726.974,147.55 725.974,145.217 725.5,142.5C 724.5,142 723.5,141.5 722.5,141C 724.5,140.333 726.5,140.333 728.5,141C 731.321,142.387 733.654,144.22 735.5,146.5 Z"/></g>
<g><path style="opacity:1" fill="#446e73" d="M 727.5,142.5 C 730.322,143.789 730.989,145.789 729.5,148.5C 728.232,146.696 727.565,144.696 727.5,142.5 Z"/></g>
<g><path style="opacity:1" fill="#a8b8b9" d="M 852.5,145.5 C 856.11,144.153 856.443,144.82 853.5,147.5C 848.437,149.483 846.27,147.817 847,142.5C 847.567,146.243 849.4,147.243 852.5,145.5 Z"/></g>
<g><path style="opacity:1" fill="#7a999d" d="M 730.5,152.5 C 731.492,152.328 732.158,152.662 732.5,153.5C 731.5,153.5 730.5,153.5 729.5,153.5C 729.5,154.5 729.5,155.5 729.5,156.5C 733.273,156.657 734.273,158.324 732.5,161.5C 732.158,162.338 731.492,162.672 730.5,162.5C 725.533,161.681 723.366,158.681 724,153.5C 723.722,154.416 723.222,155.082 722.5,155.5C 722.5,154.833 722.167,154.5 721.5,154.5C 717.562,155.219 714.062,156.885 711,159.5C 710.333,158.833 710.333,158.167 711,157.5C 712.518,156.837 713.685,155.837 714.5,154.5C 716.103,154.688 717.437,154.188 718.5,153C 718.167,152.667 717.833,152.333 717.5,152C 719.211,150.867 719.711,149.367 719,147.5C 717.512,148.196 716.012,147.862 714.5,146.5C 716.731,146.113 719.064,145.947 721.5,146C 717.874,143.749 716.707,140.582 718,136.5C 720.898,140.405 723.398,144.571 725.5,149C 724.692,149.308 724.025,149.808 723.5,150.5C 725.676,150.696 728.009,151.363 730.5,152.5 Z"/></g>
<g><path style="opacity:1" fill="#709397" d="M 842.5,155.5 C 842.703,153.956 843.37,152.622 844.5,151.5C 843.675,150.614 842.675,150.281 841.5,150.5C 841.739,148.533 841.406,146.699 840.5,145C 842.187,143.087 842.687,140.92 842,138.5C 838.237,135.539 835.904,136.539 835,141.5C 834.36,139.735 834.527,138.068 835.5,136.5C 837.479,134.832 839.812,134.166 842.5,134.5C 843.338,139.476 843.504,144.476 843,149.5C 843.71,148.027 844.876,147.36 846.5,147.5C 846.281,148.675 846.614,149.675 847.5,150.5C 849.535,151.041 851.535,151.708 853.5,152.5C 855.374,157.456 853.707,159.622 848.5,159C 850.418,157.23 850.918,155.063 850,152.5C 848.947,154.743 847.613,157.076 846,159.5C 845.502,157.456 844.335,156.122 842.5,155.5 Z"/></g>
<g><path style="opacity:1" fill="#537f85" d="M 730.5,162.5 C 731.287,166.421 731.62,170.255 731.5,174C 730.533,176.316 729.533,178.649 728.5,181C 729.973,181.71 730.64,182.876 730.5,184.5C 729.127,184.343 727.793,184.51 726.5,185C 727.416,185.278 728.082,185.778 728.5,186.5C 726.571,186.231 724.905,186.731 723.5,188C 724.549,188.492 725.549,188.326 726.5,187.5C 727.5,187.833 728.167,188.5 728.5,189.5C 728.154,190.696 727.654,190.696 727,189.5C 725.63,192.05 724.463,194.717 723.5,197.5C 723.709,198.086 724.043,198.586 724.5,199C 723.256,199.456 722.423,198.956 722,197.5C 720.916,198.665 720.083,199.998 719.5,201.5C 720.441,201.489 721.108,201.989 721.5,203C 721.354,204.727 720.687,204.894 719.5,203.5C 718.614,204.325 718.281,205.325 718.5,206.5C 720.483,206.157 721.817,206.824 722.5,208.5C 722.38,209.586 721.713,210.253 720.5,210.5C 719.833,210.167 719.167,209.833 718.5,209.5C 719.167,209.167 719.833,208.833 720.5,208.5C 719.052,207.646 717.719,206.646 716.5,205.5C 716.167,206 715.833,206.5 715.5,207C 716.649,209.527 718.315,211.527 720.5,213C 718.289,214.839 716.123,214.672 714,212.5C 713.243,210.685 712.41,209.019 711.5,207.5C 710.286,205.851 708.953,204.185 707.5,202.5C 707.977,201.522 708.643,200.689 709.5,200C 706.949,198.484 707.282,197.651 710.5,197.5C 712.019,198.41 713.685,199.243 715.5,200C 710.134,202.474 710.467,203.474 716.5,203C 719.649,198.038 718.982,193.705 714.5,190C 718.867,190.16 721.867,188.327 723.5,184.5C 723.333,183.833 723.167,183.167 723,182.5C 721.936,186.295 719.436,187.461 715.5,186C 717.901,185.195 717.734,184.362 715,183.5C 714.667,182.167 714.333,180.833 714,179.5C 713.667,181.833 713.333,184.167 713,186.5C 712.085,185.672 711.419,184.672 711,183.5C 710.833,184.167 710.667,184.833 710.5,185.5C 711.68,189.019 713.68,192.019 716.5,194.5C 715.902,195.795 715.402,197.128 715,198.5C 714.641,195.456 713.974,195.122 713,197.5C 712.329,196.748 711.496,196.414 710.5,196.5C 709.178,196.67 708.011,196.337 707,195.5C 706.54,192.696 707.04,190.029 708.5,187.5C 704.538,183.913 704.538,180.413 708.5,177C 707.416,174.81 708.083,173.144 710.5,172C 709.506,170.671 708.506,169.338 707.5,168C 707.425,163.49 708.259,158.99 710,154.5C 711.414,155.413 712.914,155.413 714.5,154.5C 713.685,155.837 712.518,156.837 711,157.5C 710.333,158.167 710.333,158.833 711,159.5C 714.062,156.885 717.562,155.219 721.5,154.5C 720.706,159.248 719.54,163.581 718,167.5C 714.794,169.124 712.128,168.458 710,165.5C 709.862,169.199 711.695,171.199 715.5,171.5C 717.912,171.594 719.745,170.594 721,168.5C 722.195,164.249 722.695,159.915 722.5,155.5C 723.222,155.082 723.722,154.416 724,153.5C 723.366,158.681 725.533,161.681 730.5,162.5 Z"/></g>
<g><path style="opacity:1" fill="#3e7981" d="M 177.5,157.5 C 182.511,157.334 187.511,157.501 192.5,158C 197.069,160.541 198.569,164.375 197,169.5C 195.786,171.049 194.286,172.215 192.5,173C 187.177,173.499 181.844,173.666 176.5,173.5C 176.218,168.073 176.551,162.74 177.5,157.5 Z"/></g>
<g><path style="opacity:1" fill="#4a787f" d="M 732.5,161.5 C 728.668,161.81 727.168,160.143 728,156.5C 730.072,157.734 731.572,159.401 732.5,161.5 Z"/></g>
<g><path style="opacity:1" fill="#91a9ab" d="M 712.5,162.5 C 713.5,162.5 714.5,162.5 715.5,162.5C 715.5,163.5 715.5,164.5 715.5,165.5C 714.5,165.5 713.5,165.5 712.5,165.5C 712.5,164.5 712.5,163.5 712.5,162.5 Z"/></g>
<g><path style="opacity:1" fill="#9daaaa" d="M 802.5,163.5 C 809.547,162.701 811.881,165.535 809.5,172C 804.438,174.938 801.438,173.605 800.5,168C 800.519,166.167 801.185,164.667 802.5,163.5 Z"/></g>
<g><path style="opacity:1" fill="#749599" d="M 869.5,164.5 C 867.956,164.297 866.622,163.63 865.5,162.5C 865.167,163.5 864.833,164.5 864.5,165.5C 866.396,168.966 868.063,172.632 869.5,176.5C 869.192,177.308 868.692,177.975 868,178.5C 867.841,176.657 867.341,175.991 866.5,176.5C 864.622,175.066 863.955,173.399 864.5,171.5C 864.938,171.565 865.272,171.399 865.5,171C 862.237,168.28 860.57,164.78 860.5,160.5C 862.21,158.8 864.21,157.467 866.5,156.5C 869.922,159.29 870.589,159.123 868.5,156C 870.934,155.667 871.934,156.834 871.5,159.5C 868.603,159.125 865.937,159.625 863.5,161C 866.345,161.008 868.345,162.175 869.5,164.5 Z"/></g>
<g><path style="opacity:1" fill="#9aa8a8" d="M 769.5,163.5 C 774.835,163.005 777.335,165.338 777,170.5C 770.944,175.332 767.611,173.999 767,166.5C 768.045,165.627 768.878,164.627 769.5,163.5 Z"/></g>
<g><path style="opacity:1" fill="#b1bebf" d="M 721.5,154.5 C 722.167,154.5 722.5,154.833 722.5,155.5C 722.695,159.915 722.195,164.249 721,168.5C 719.745,170.594 717.912,171.594 715.5,171.5C 711.695,171.199 709.862,169.199 710,165.5C 712.128,168.458 714.794,169.124 718,167.5C 719.54,163.581 720.706,159.248 721.5,154.5 Z"/></g>
<g><path style="opacity:1" fill="#829ea1" d="M 849.5,173.5 C 849.5,172.5 849.5,171.5 849.5,170.5C 850.473,171.984 851.807,172.484 853.5,172C 850.882,170.026 851.048,168.193 854,166.5C 854,167.833 854,169.167 854,170.5C 855.425,171.212 856.925,171.379 858.5,171C 856.083,174.198 853.083,175.031 849.5,173.5 Z"/></g>
<g><path style="opacity:1" fill="#547f84" d="M 815.5,104.5 C 814.489,101.982 813.156,101.982 811.5,104.5C 810.757,103.092 809.923,101.759 809,100.5C 806.648,104.386 807.481,107.552 811.5,110C 814.399,110.186 817.066,110.352 819.5,110.5C 817.132,113.375 816.966,116.375 819,119.5C 819.251,117.567 819.751,115.734 820.5,114C 822.313,113.386 822.647,113.719 821.5,115C 824.139,121.149 824.806,120.982 823.5,114.5C 824.325,113.614 825.325,113.281 826.5,113.5C 827.812,115.479 829.479,117.145 831.5,118.5C 831.489,117.559 831.989,116.892 833,116.5C 833.5,116.833 834,117.167 834.5,117.5C 833.754,118.736 833.421,120.07 833.5,121.5C 833.372,123.655 833.872,125.655 835,127.5C 837.906,130.037 841.073,132.204 844.5,134C 845.252,134.671 845.586,135.504 845.5,136.5C 846.837,141.671 847.67,141.338 848,135.5C 850.229,138.364 853.063,140.364 856.5,141.5C 856.167,142.5 855.5,143.167 854.5,143.5C 851.798,142.202 851.131,142.869 852.5,145.5C 849.4,147.243 847.567,146.243 847,142.5C 846.27,147.817 848.437,149.483 853.5,147.5C 854.492,147.328 855.158,147.662 855.5,148.5C 855.335,151.518 855.502,154.518 856,157.5C 856.278,158.416 856.778,159.082 857.5,159.5C 859.196,157.871 860.196,158.204 860.5,160.5C 860.57,164.78 862.237,168.28 865.5,171C 865.272,171.399 864.938,171.565 864.5,171.5C 862.801,171.34 861.134,171.506 859.5,172C 858.023,174.148 856.023,175.482 853.5,176C 855.333,176.5 856.5,177.667 857,179.5C 856.964,175.534 858.797,173.701 862.5,174C 863.594,176.323 864.427,179.156 865,182.5C 866.128,180.655 866.628,178.655 866.5,176.5C 867.341,175.991 867.841,176.657 868,178.5C 868.692,177.975 869.192,177.308 869.5,176.5C 868.063,172.632 866.396,168.966 864.5,165.5C 864.833,164.5 865.167,163.5 865.5,162.5C 866.622,163.63 867.956,164.297 869.5,164.5C 873.498,165.499 874.498,167.832 872.5,171.5C 871.005,171.415 870.005,172.081 869.5,173.5C 871.798,175.75 872.631,178.416 872,181.5C 871.667,180.5 871.333,179.5 871,178.5C 869.803,181.089 868.803,183.756 868,186.5C 867.667,186.167 867.333,185.833 867,185.5C 864.984,186.747 863.151,188.081 861.5,189.5C 859.438,191.41 857.938,193.743 857,196.5C 856.525,200.569 856.192,204.569 856,208.5C 857.719,205.975 858.886,203.308 859.5,200.5C 859.216,202.415 859.549,204.081 860.5,205.5C 857.049,208.41 855.882,212.077 857,216.5C 859.403,219.365 860.236,219.199 859.5,216C 860.649,214.256 861.983,214.089 863.5,215.5C 864.298,215.043 864.631,214.376 864.5,213.5C 865.89,216.373 864.89,218.039 861.5,218.5C 861.421,219.93 861.754,221.264 862.5,222.5C 860.979,222.88 859.313,223.046 857.5,223C 859.749,225.447 859.916,227.947 858,230.5C 857.722,229.584 857.222,228.918 856.5,228.5C 856.822,226.278 856.155,224.444 854.5,223C 851.961,222.204 849.628,222.371 847.5,223.5C 845.974,222.895 844.974,221.729 844.5,220C 843.552,219.517 842.552,219.351 841.5,219.5C 839.322,218.796 837.322,218.463 835.5,218.5C 836.986,216.698 837.986,214.698 838.5,212.5C 839.5,212.5 840.5,212.5 841.5,212.5C 841.216,210.585 841.549,208.919 842.5,207.5C 845.601,207.692 848.601,208.358 851.5,209.5C 853.683,208.308 855.016,206.475 855.5,204C 854.316,201.49 853.149,198.99 852,196.5C 850.951,198.107 849.451,198.773 847.5,198.5C 847.602,194.103 847.768,189.769 848,185.5C 849.42,183.578 851.253,182.245 853.5,181.5C 852.738,181.089 851.738,180.923 850.5,181C 851.167,180.333 851.833,179.667 852.5,179C 851.529,177.796 850.529,177.296 849.5,177.5C 850.376,176.749 851.376,176.249 852.5,176C 850.881,175.764 849.881,174.931 849.5,173.5C 853.083,175.031 856.083,174.198 858.5,171C 856.925,171.379 855.425,171.212 854,170.5C 854,169.167 854,167.833 854,166.5C 851.048,168.193 850.882,170.026 853.5,172C 851.807,172.484 850.473,171.984 849.5,170.5C 847.55,165.315 845.217,160.315 842.5,155.5C 844.335,156.122 845.502,157.456 846,159.5C 847.613,157.076 848.947,154.743 850,152.5C 850.918,155.063 850.418,157.23 848.5,159C 853.707,159.622 855.374,157.456 853.5,152.5C 851.535,151.708 849.535,151.041 847.5,150.5C 846.614,149.675 846.281,148.675 846.5,147.5C 844.876,147.36 843.71,148.027 843,149.5C 843.504,144.476 843.338,139.476 842.5,134.5C 839.812,134.166 837.479,134.832 835.5,136.5C 834.516,132.535 833.516,132.535 832.5,136.5C 829.713,135.606 827.046,134.44 824.5,133C 822.352,130.925 822.018,128.592 823.5,126C 823.167,125.833 822.833,125.667 822.5,125.5C 821.719,126.729 821.219,128.062 821,129.5C 820.784,127.616 820.117,125.949 819,124.5C 818.389,128.272 817.389,128.272 816,124.5C 815.667,125.5 815.333,126.5 815,127.5C 814.338,126.016 813.504,124.683 812.5,123.5C 816.687,122.125 817.52,119.459 815,115.5C 814.804,117.286 813.971,118.619 812.5,119.5C 811.158,118.098 810.324,118.431 810,120.5C 809.581,119.328 808.915,118.328 808,117.5C 807.383,118.449 807.549,119.282 808.5,120C 804.364,119.789 803.697,118.122 806.5,115C 804.445,114.313 802.779,113.146 801.5,111.5C 803.672,111.324 806.005,111.157 808.5,111C 807.416,108.175 806.249,108.008 805,110.5C 801.916,108.34 801.75,107.006 804.5,106.5C 803.675,105.614 802.675,105.281 801.5,105.5C 801.737,104.209 801.404,103.209 800.5,102.5C 798.61,102.297 797.11,102.963 796,104.5C 795.446,101.443 796.613,99.2761 799.5,98C 797.633,97.2888 796.133,97.7888 795,99.5C 794.333,101.833 794.333,104.167 795,106.5C 795.816,107.823 796.983,108.489 798.5,108.5C 798.611,109.117 798.944,109.617 799.5,110C 795.588,111.713 795.588,113.547 799.5,115.5C 800.429,116.689 800.762,118.022 800.5,119.5C 800.631,120.376 800.298,121.043 799.5,121.5C 796.192,121.561 792.859,120.895 789.5,119.5C 785.786,121.153 783.786,119.82 783.5,115.5C 783.5,115.167 783.5,114.833 783.5,114.5C 785.564,114.762 786.897,115.929 787.5,118C 788.448,118.483 789.448,118.649 790.5,118.5C 791.799,116.847 791.466,115.347 789.5,114C 790.416,113.626 791.25,113.126 792,112.5C 792.667,109.833 792.667,107.167 792,104.5C 791.617,103.944 791.117,103.611 790.5,103.5C 790.5,102.5 790.5,101.5 790.5,100.5C 790.579,99.0695 790.246,97.7362 789.5,96.5C 790.325,95.6143 791.325,95.281 792.5,95.5C 792.351,96.552 792.517,97.552 793,98.5C 794.117,96.8757 795.617,95.8757 797.5,95.5C 800.862,96.0634 803.862,97.3967 806.5,99.5C 808.173,97.9137 810.173,97.2471 812.5,97.5C 812.426,101.161 813.426,101.828 815.5,99.5C 820.397,99.3949 822.397,101.728 821.5,106.5C 819.142,106.747 817.142,106.081 815.5,104.5 Z"/></g>
<g><path style="opacity:1" fill="#95aaac" d="M 864.5,171.5 C 863.955,173.399 864.622,175.066 866.5,176.5C 866.628,178.655 866.128,180.655 865,182.5C 864.427,179.156 863.594,176.323 862.5,174C 858.797,173.701 856.964,175.534 857,179.5C 856.5,177.667 855.333,176.5 853.5,176C 856.023,175.482 858.023,174.148 859.5,172C 861.134,171.506 862.801,171.34 864.5,171.5 Z"/></g>
<g><path style="opacity:1" fill="#a2b4b5" d="M 800.5,102.5 C 798.925,104.114 798.259,106.114 798.5,108.5C 796.983,108.489 795.816,107.823 795,106.5C 794.333,104.167 794.333,101.833 795,99.5C 796.133,97.7888 797.633,97.2888 799.5,98C 796.613,99.2761 795.446,101.443 796,104.5C 797.11,102.963 798.61,102.297 800.5,102.5 Z"/></g>
<g><path style="opacity:1" fill="#79989c" d="M 872.5,171.5 C 872.196,172.15 871.863,172.817 871.5,173.5C 872.54,175.523 873.54,177.523 874.5,179.5C 872.628,181.755 871.461,184.422 871,187.5C 870.25,188.126 869.416,188.626 868.5,189C 871.923,192.918 871.256,196.418 866.5,199.5C 864.889,198.68 864.222,197.346 864.5,195.5C 865.822,195.33 866.989,195.663 868,196.5C 868.483,195.552 868.649,194.552 868.5,193.5C 867.555,190.013 865.222,188.68 861.5,189.5C 863.151,188.081 864.984,186.747 867,185.5C 867.333,185.833 867.667,186.167 868,186.5C 868.803,183.756 869.803,181.089 871,178.5C 871.333,179.5 871.667,180.5 872,181.5C 872.631,178.416 871.798,175.75 869.5,173.5C 870.005,172.081 871.005,171.415 872.5,171.5 Z"/></g>
<g><path style="opacity:1" fill="#9fabab" d="M 769.5,188.5 C 777.41,188.845 779.077,192.012 774.5,198C 768.498,198.993 766.332,196.493 768,190.5C 768.717,189.956 769.217,189.289 769.5,188.5 Z"/></g>
<g><path style="opacity:1" fill="#9eaaab" d="M 802.5,188.5 C 808.801,188.288 811.134,191.121 809.5,197C 800.838,199.501 798.504,196.668 802.5,188.5 Z"/></g>
<g><path style="opacity:1" fill="#aab8b9" d="M 861.5,189.5 C 865.222,188.68 867.555,190.013 868.5,193.5C 862.375,191.613 859.375,193.946 859.5,200.5C 858.886,203.308 857.719,205.975 856,208.5C 856.192,204.569 856.525,200.569 857,196.5C 857.938,193.743 859.438,191.41 861.5,189.5 Z"/></g>
<g><path style="opacity:1" fill="#7c9b9e" d="M 710.5,197.5 C 710.5,197.167 710.5,196.833 710.5,196.5C 711.496,196.414 712.329,196.748 713,197.5C 713.974,195.122 714.641,195.456 715,198.5C 715.402,197.128 715.902,195.795 716.5,194.5C 713.68,192.019 711.68,189.019 710.5,185.5C 710.667,184.833 710.833,184.167 711,183.5C 711.419,184.672 712.085,185.672 713,186.5C 713.333,184.167 713.667,181.833 714,179.5C 714.333,180.833 714.667,182.167 715,183.5C 717.734,184.362 717.901,185.195 715.5,186C 719.436,187.461 721.936,186.295 723,182.5C 723.167,183.167 723.333,183.833 723.5,184.5C 721.867,188.327 718.867,190.16 714.5,190C 718.982,193.705 719.649,198.038 716.5,203C 710.467,203.474 710.134,202.474 715.5,200C 713.685,199.243 712.019,198.41 710.5,197.5 Z"/></g>
<g><path style="opacity:1" fill="#668c90" d="M 728.5,186.5 C 731.054,192.368 733.554,198.368 736,204.5C 736.72,206.112 736.554,207.612 735.5,209C 736.756,209.417 737.423,210.25 737.5,211.5C 736.167,212.167 734.833,212.833 733.5,213.5C 731.262,212.463 728.929,212.297 726.5,213C 725.177,213.816 724.511,214.983 724.5,216.5C 724.586,217.496 724.252,218.329 723.5,219C 732.208,222.428 734.708,228.594 731,237.5C 731.271,232.884 729.937,228.884 727,225.5C 726.338,226.984 725.504,228.317 724.5,229.5C 723.503,229.53 722.836,229.03 722.5,228C 723.707,226.7 724.374,225.2 724.5,223.5C 723.5,223.5 722.5,223.5 721.5,223.5C 721.657,224.873 721.49,226.207 721,227.5C 720.654,225.782 720.154,224.115 719.5,222.5C 720.902,221.158 720.569,220.324 718.5,220C 719.167,219.667 719.833,219.333 720.5,219C 718.048,218.71 715.715,218.044 713.5,217C 712.226,216.023 712.226,215.189 713.5,214.5C 716.073,215.555 718.739,215.722 721.5,215C 723.433,211.283 725.1,208.117 726.5,205.5C 726.333,204.833 726.167,204.167 726,203.5C 724.374,204.955 723.208,206.622 722.5,208.5C 721.817,206.824 720.483,206.157 718.5,206.5C 718.281,205.325 718.614,204.325 719.5,203.5C 720.687,204.894 721.354,204.727 721.5,203C 721.108,201.989 720.441,201.489 719.5,201.5C 720.083,199.998 720.916,198.665 722,197.5C 722.423,198.956 723.256,199.456 724.5,199C 724.043,198.586 723.709,198.086 723.5,197.5C 724.463,194.717 725.63,192.05 727,189.5C 727.654,190.696 728.154,190.696 728.5,189.5C 728.167,188.5 727.5,187.833 726.5,187.5C 725.549,188.326 724.549,188.492 723.5,188C 724.905,186.731 726.571,186.231 728.5,186.5 Z"/></g>
<g><path style="opacity:1" fill="#87a0a3" d="M 842.5,207.5 C 843.469,206.691 844.302,205.691 845,204.5C 846.153,206.497 847.653,206.83 849.5,205.5C 848.263,204.719 847.263,203.719 846.5,202.5C 846.833,202.167 847.167,201.833 847.5,201.5C 848.914,202.624 850.414,203.624 852,204.5C 852.667,203.5 852.667,202.5 852,201.5C 849.913,200.312 848.413,199.312 847.5,198.5C 849.451,198.773 850.951,198.107 852,196.5C 853.149,198.99 854.316,201.49 855.5,204C 855.016,206.475 853.683,208.308 851.5,209.5C 848.601,208.358 845.601,207.692 842.5,207.5 Z"/></g>
<g><path style="opacity:1" fill="#95abad" d="M 713.5,214.5 C 712.061,212.412 711.394,210.079 711.5,207.5C 712.41,209.019 713.243,210.685 714,212.5C 716.123,214.672 718.289,214.839 720.5,213C 718.315,211.527 716.649,209.527 715.5,207C 715.833,206.5 716.167,206 716.5,205.5C 717.719,206.646 719.052,207.646 720.5,208.5C 719.833,208.833 719.167,209.167 718.5,209.5C 719.167,209.833 719.833,210.167 720.5,210.5C 721.713,210.253 722.38,209.586 722.5,208.5C 723.208,206.622 724.374,204.955 726,203.5C 726.167,204.167 726.333,204.833 726.5,205.5C 725.1,208.117 723.433,211.283 721.5,215C 718.739,215.722 716.073,215.555 713.5,214.5 Z"/></g>
<g><path style="opacity:1" fill="#74969a" d="M 864.5,213.5 C 864.631,214.376 864.298,215.043 863.5,215.5C 861.983,214.089 860.649,214.256 859.5,216C 860.236,219.199 859.403,219.365 857,216.5C 855.882,212.077 857.049,208.41 860.5,205.5C 865.13,205.032 868.297,202.699 870,198.5C 870.157,200.995 870.324,203.328 870.5,205.5C 868.328,205.676 865.995,205.843 863.5,206C 861.339,208.149 860.172,210.649 860,213.5C 860.915,212.672 861.581,211.672 862,210.5C 862.698,211.691 863.531,212.691 864.5,213.5 Z"/></g>
<g><path style="opacity:1" fill="#9db2b4" d="M 848.5,210.5 C 852.051,211.186 852.217,212.186 849,213.5C 848.333,214.167 848.333,214.833 849,215.5C 851.183,215.965 853.35,217.132 855.5,219C 847.997,220.017 845.664,217.183 848.5,210.5 Z"/></g>
<g><path style="opacity:1" fill="#96abad" d="M 733.5,213.5 C 733.5,215.167 733.5,216.833 733.5,218.5C 732.022,218.762 730.689,218.429 729.5,217.5C 729.846,216.304 730.346,216.304 731,217.5C 731.483,216.552 731.649,215.552 731.5,214.5C 730.167,214.5 728.833,214.5 727.5,214.5C 727.649,215.552 727.483,216.552 727,217.5C 726.329,216.748 725.496,216.414 724.5,216.5C 724.511,214.983 725.177,213.816 726.5,213C 728.929,212.297 731.262,212.463 733.5,213.5 Z"/></g>
<g><path style="opacity:1" fill="#8ea7aa" d="M 738.5,217.5 C 737.427,218.251 737.26,219.251 738,220.5C 740.601,217.696 742.101,218.029 742.5,221.5C 740.897,221.312 739.563,221.812 738.5,223C 740.387,223.78 742.054,223.613 743.5,222.5C 744.703,223.943 745.203,225.609 745,227.5C 742.834,225.879 740.334,225.045 737.5,225C 734.782,221.698 734.948,218.531 738,215.5C 738.464,216.094 738.631,216.761 738.5,217.5 Z"/></g>
<g><path style="opacity:1" fill="#aabbbc" d="M 847.5,223.5 C 849.628,222.371 851.961,222.204 854.5,223C 856.155,224.444 856.822,226.278 856.5,228.5C 856.631,229.239 856.464,229.906 856,230.5C 855.907,227.993 855.074,225.826 853.5,224C 852.833,223.333 852.167,223.333 851.5,224C 852.517,225.049 852.684,226.216 852,227.5C 851.623,226.058 850.79,225.058 849.5,224.5C 849.158,223.662 848.492,223.328 847.5,223.5 Z"/></g>
<g><path style="opacity:1" fill="#729498" d="M 832.5,237.5 C 831.29,237.068 830.29,236.401 829.5,235.5C 829.938,235.565 830.272,235.399 830.5,235C 827.059,233.682 825.725,231.182 826.5,227.5C 829.522,227.804 832.522,228.304 835.5,229C 834.351,230.744 833.017,230.911 831.5,229.5C 830.004,232.175 830.671,234.175 833.5,235.5C 833.137,236.183 832.804,236.85 832.5,237.5 Z"/></g>
<g><path style="opacity:1" fill="#709296" d="M 841.5,219.5 C 842.552,219.351 843.552,219.517 844.5,220C 844.974,221.729 845.974,222.895 847.5,223.5C 848.492,223.328 849.158,223.662 849.5,224.5C 844.214,224.387 843.547,225.72 847.5,228.5C 845.995,231.131 845.329,230.797 845.5,227.5C 842.513,227.422 841.847,228.589 843.5,231C 846.505,233.009 849.171,235.342 851.5,238C 850.941,240.188 849.607,240.854 847.5,240C 848.308,239.692 848.975,239.192 849.5,238.5C 848.726,237.289 847.893,237.289 847,238.5C 845.484,235.949 844.651,236.282 844.5,239.5C 844.44,240.043 844.107,240.376 843.5,240.5C 841.98,239.15 841.313,237.817 841.5,236.5C 840.5,237.167 839.5,237.833 838.5,238.5C 836.37,246.562 831.37,249.395 823.5,247C 824.126,246.25 824.626,245.416 825,244.5C 826.49,245.728 827.99,245.728 829.5,244.5C 830.189,245.774 831.023,245.774 832,244.5C 832.497,242.19 832.663,239.857 832.5,237.5C 833.79,238.058 834.623,239.058 835,240.5C 836.77,237.063 838.936,233.897 841.5,231C 839.104,229.379 837.104,227.213 835.5,224.5C 836.016,225.758 835.35,226.758 833.5,227.5C 832.096,225.453 832.429,223.786 834.5,222.5C 836.078,223.64 837.744,224.14 839.5,224C 838.284,222.26 836.618,221.26 834.5,221C 837.584,220.369 840.25,221.202 842.5,223.5C 842.833,223 843.167,222.5 843.5,222C 842.491,221.645 841.824,220.812 841.5,219.5 Z"/></g>
<g><path style="opacity:1" fill="#759599" d="M 767.5,236.5 C 770.079,237.228 772.746,237.728 775.5,238C 777.919,239.509 778.919,241.675 778.5,244.5C 778.176,247.694 779.342,248.694 782,247.5C 782.507,248.996 782.007,250.163 780.5,251C 781.416,251.278 782.082,251.778 782.5,252.5C 781.833,252.5 781.5,252.833 781.5,253.5C 778.077,249.972 776.244,245.638 776,240.5C 775.581,244.852 774.914,245.185 774,241.5C 773.667,242.167 773.333,242.833 773,243.5C 771.065,241.898 768.899,240.731 766.5,240C 767.711,239.107 767.711,238.274 766.5,237.5C 765.914,237.709 765.414,238.043 765,238.5C 764.667,240.833 764.333,243.167 764,245.5C 761.392,240.8 762.559,237.8 767.5,236.5 Z"/></g>
<g><path style="opacity:1" fill="#a7b8b9" d="M 826.5,235.5 C 827.5,235.5 828.5,235.5 829.5,235.5C 830.29,236.401 831.29,237.068 832.5,237.5C 832.663,239.857 832.497,242.19 832,244.5C 831.023,245.774 830.189,245.774 829.5,244.5C 832.664,240.165 831.664,237.165 826.5,235.5 Z"/></g>
<g><path style="opacity:1" fill="#558186" d="M 826.5,235.5 C 831.664,237.165 832.664,240.165 829.5,244.5C 827.99,245.728 826.49,245.728 825,244.5C 824.626,245.416 824.126,246.25 823.5,247C 831.37,249.395 836.37,246.562 838.5,238.5C 839.5,237.833 840.5,237.167 841.5,236.5C 841.313,237.817 841.98,239.15 843.5,240.5C 844.107,240.376 844.44,240.043 844.5,239.5C 846.344,240.204 846.844,241.537 846,243.5C 845.333,242.833 844.667,242.167 844,241.5C 844.379,243.075 844.212,244.575 843.5,246C 841.567,246.783 840.067,246.283 839,244.5C 838.667,245.833 838.333,247.167 838,248.5C 837.023,247.226 836.189,247.226 835.5,248.5C 834.086,250.918 832.086,252.585 829.5,253.5C 828.883,253.389 828.383,253.056 828,252.5C 825.954,254.376 824.121,256.376 822.5,258.5C 821.818,257.757 821.151,257.091 820.5,256.5C 822.419,252.189 821.419,248.689 817.5,246C 814.964,245.814 812.631,245.314 810.5,244.5C 810.548,241.708 809.215,239.875 806.5,239C 808.861,237.331 811.194,235.665 813.5,234C 814.899,233.405 816.232,233.572 817.5,234.5C 818.192,233.975 818.692,233.308 819,232.5C 820.714,233.925 822.047,233.592 823,231.5C 824.627,232.532 825.793,233.866 826.5,235.5 Z"/></g>
<g><path style="opacity:1" fill="#7a9a9d" d="M 745.5,234.5 C 746.776,237.03 746.776,239.697 745.5,242.5C 746.005,243.919 747.005,244.585 748.5,244.5C 747.391,245.29 746.058,245.79 744.5,246C 746.984,247.983 749.317,250.15 751.5,252.5C 752.729,253.281 754.062,253.781 755.5,254C 752.833,254.667 750.167,254.667 747.5,254C 746.902,250.953 745.235,248.787 742.5,247.5C 743.405,246.036 743.405,244.702 742.5,243.5C 745.076,241.112 746.076,238.112 745.5,234.5 Z"/></g>
<g><path style="opacity:1" fill="#537e84" d="M 737.5,211.5 C 738.222,211.918 738.722,212.584 739,213.5C 739.333,213.167 739.667,212.833 740,212.5C 742.378,215.916 741.878,217.583 738.5,217.5C 738.631,216.761 738.464,216.094 738,215.5C 734.948,218.531 734.782,221.698 737.5,225C 740.334,225.045 742.834,225.879 745,227.5C 745.203,225.609 744.703,223.943 743.5,222.5C 744.189,221.293 744.355,219.959 744,218.5C 744.98,220.059 745.813,221.726 746.5,223.5C 749.24,223.846 751.907,225.013 754.5,227C 756.041,228.579 757.208,230.413 758,232.5C 758.333,232.167 758.667,231.833 759,231.5C 759.219,232.938 759.719,234.271 760.5,235.5C 761.696,235.154 761.696,234.654 760.5,234C 763.434,233.275 765.767,234.108 767.5,236.5C 762.559,237.8 761.392,240.8 764,245.5C 764.333,243.167 764.667,240.833 765,238.5C 765.414,238.043 765.914,237.709 766.5,237.5C 767.711,238.274 767.711,239.107 766.5,240C 768.899,240.731 771.065,241.898 773,243.5C 773.333,242.833 773.667,242.167 774,241.5C 774.914,245.185 775.581,244.852 776,240.5C 776.244,245.638 778.077,249.972 781.5,253.5C 781.67,254.822 781.337,255.989 780.5,257C 781.449,257.617 782.282,257.451 783,256.5C 783.825,258.701 783.325,260.534 781.5,262C 782.167,262.667 782.833,262.667 783.5,262C 786.325,258.476 785.992,255.31 782.5,252.5C 782.082,251.778 781.416,251.278 780.5,251C 782.007,250.163 782.507,248.996 782,247.5C 779.342,248.694 778.176,247.694 778.5,244.5C 779.497,244.53 780.164,244.03 780.5,243C 779.548,241.7 779.548,240.533 780.5,239.5C 782.998,238.879 785.332,239.545 787.5,241.5C 788.768,240.572 790.101,240.405 791.5,241C 789.381,241.342 789.047,242.175 790.5,243.5C 785.79,248.171 785.29,253.504 789,259.5C 789.651,257.765 789.485,256.098 788.5,254.5C 789.025,253.808 789.692,253.308 790.5,253C 788.842,252.275 788.342,251.108 789,249.5C 790.292,248.209 791.458,248.209 792.5,249.5C 790.128,251.412 790.795,252.578 794.5,253C 791.13,255.697 789.796,259.197 790.5,263.5C 790.483,265.028 789.816,265.528 788.5,265C 787.773,263.601 787.273,262.101 787,260.5C 786.32,262.513 784.987,263.846 783,264.5C 779.12,264.315 775.786,262.981 773,260.5C 770.784,263.047 769.117,263.047 768,260.5C 768.718,261.451 769.551,261.617 770.5,261C 768.158,260.164 766.158,258.83 764.5,257C 766.123,253.946 766.79,254.446 766.5,258.5C 767.5,258.5 768.5,258.5 769.5,258.5C 770.397,259.598 771.23,259.598 772,258.5C 772.035,251.002 768.369,248.336 761,250.5C 760.988,248.566 761.155,246.566 761.5,244.5C 761.415,242.667 760.748,241.334 759.5,240.5C 754.256,239.289 753.256,241.123 756.5,246C 754.299,246.825 752.466,246.325 751,244.5C 750.601,244.728 750.435,245.062 750.5,245.5C 749.833,245.167 749.167,244.833 748.5,244.5C 747.005,244.585 746.005,243.919 745.5,242.5C 746.776,239.697 746.776,237.03 745.5,234.5C 744.067,233.167 742.733,231.667 741.5,230C 738.751,228.877 736.251,227.377 734,225.5C 733.833,225.833 733.667,226.167 733.5,226.5C 736.095,228.717 738.595,231.051 741,233.5C 744.067,238.938 742.567,241.772 736.5,242C 738.345,243.128 740.345,243.628 742.5,243.5C 743.405,244.702 743.405,246.036 742.5,247.5C 742.631,248.376 742.298,249.043 741.5,249.5C 740.214,246.38 738.048,244.046 735,242.5C 733.493,243.535 731.993,243.368 730.5,242C 729.037,239.65 727.703,237.317 726.5,235C 726.667,234.167 726.833,233.333 727,232.5C 728.753,237.623 729.42,237.623 729,232.5C 727.591,231.219 726.091,230.219 724.5,229.5C 725.504,228.317 726.338,226.984 727,225.5C 729.937,228.884 731.271,232.884 731,237.5C 734.708,228.594 732.208,222.428 723.5,219C 724.252,218.329 724.586,217.496 724.5,216.5C 725.496,216.414 726.329,216.748 727,217.5C 727.483,216.552 727.649,215.552 727.5,214.5C 728.833,214.5 730.167,214.5 731.5,214.5C 731.649,215.552 731.483,216.552 731,217.5C 730.346,216.304 729.846,216.304 729.5,217.5C 730.689,218.429 732.022,218.762 733.5,218.5C 733.5,216.833 733.5,215.167 733.5,213.5C 734.833,212.833 736.167,212.167 737.5,211.5 Z"/></g>
<g><path style="opacity:1" fill="#a1b4b6" d="M 735.5,236.5 C 736.5,236.5 737.5,236.5 738.5,236.5C 737.754,240.31 736.754,240.31 735.5,236.5 Z"/></g>
<g><path style="opacity:1" fill="#adbbbc" d="M 745.5,234.5 C 746.076,238.112 745.076,241.112 742.5,243.5C 740.345,243.628 738.345,243.128 736.5,242C 742.567,241.772 744.067,238.938 741,233.5C 738.595,231.051 736.095,228.717 733.5,226.5C 733.667,226.167 733.833,225.833 734,225.5C 736.251,227.377 738.751,228.877 741.5,230C 742.733,231.667 744.067,233.167 745.5,234.5 Z"/></g>
<g><path style="opacity:1" fill="#98afb1" d="M 803.5,248.5 C 801.612,249.275 799.612,249.275 797.5,248.5C 794.9,245.968 793.4,242.968 793,239.5C 794.216,241.968 795.883,243.968 798,245.5C 798.5,245.333 799,245.167 799.5,245C 798.446,243.612 798.28,242.112 799,240.5C 800.017,242.376 800.851,244.376 801.5,246.5C 803.069,245.286 803.902,243.619 804,241.5C 804.703,243.929 804.537,246.262 803.5,248.5 Z"/></g>
<g><path style="opacity:1" fill="#99afb0" d="M 790.5,243.5 C 791.492,245.456 792.492,247.456 793.5,249.5C 793.167,249.5 792.833,249.5 792.5,249.5C 791.458,248.209 790.292,248.209 789,249.5C 788.342,251.108 788.842,252.275 790.5,253C 789.692,253.308 789.025,253.808 788.5,254.5C 789.485,256.098 789.651,257.765 789,259.5C 785.29,253.504 785.79,248.171 790.5,243.5 Z"/></g>
<g><path style="opacity:1" fill="#adbabb" d="M 809.5,246.5 C 816.827,245.329 819.994,248.329 819,255.5C 818.31,256.738 817.81,256.738 817.5,255.5C 817.503,250.185 814.836,248.185 809.5,249.5C 808.833,249.5 808.5,249.833 808.5,250.5C 805.574,251.461 802.574,252.127 799.5,252.5C 801.072,251.313 802.739,250.313 804.5,249.5C 806.411,248.925 808.078,247.925 809.5,246.5 Z"/></g>
<g><path style="opacity:1" fill="#7d9da0" d="M 759.5,240.5 C 760.748,241.334 761.415,242.667 761.5,244.5C 761.155,246.566 760.988,248.566 761,250.5C 768.369,248.336 772.035,251.002 772,258.5C 771.23,259.598 770.397,259.598 769.5,258.5C 769.66,256.801 769.494,255.134 769,253.5C 768.195,255.901 767.362,255.734 766.5,253C 763.563,251.346 760.563,251.179 757.5,252.5C 754.972,251.831 754.972,250.998 757.5,250C 754.453,249.484 752.12,247.984 750.5,245.5C 750.435,245.062 750.601,244.728 751,244.5C 752.466,246.325 754.299,246.825 756.5,246C 753.256,241.123 754.256,239.289 759.5,240.5 Z"/></g>
<g><path style="opacity:1" fill="#457075" d="M 759.5,240.5 C 759.678,241.695 760.011,242.862 760.5,244C 758.97,247.426 757.97,247.259 757.5,243.5C 757.64,241.97 758.307,240.97 759.5,240.5 Z"/></g>
<g><path style="opacity:1" fill="#709296" d="M 797.5,248.5 C 799.612,249.275 801.612,249.275 803.5,248.5C 803.5,249.167 803.833,249.5 804.5,249.5C 802.739,250.313 801.072,251.313 799.5,252.5C 801.076,253.143 802.41,254.143 803.5,255.5C 801.488,254.986 799.488,254.82 797.5,255C 798.167,255.333 798.833,255.667 799.5,256C 798.328,256.419 797.328,257.085 796.5,258C 797.582,259.33 798.249,260.83 798.5,262.5C 798.19,263.738 797.69,263.738 797,262.5C 795.329,255.979 793.829,255.979 792.5,262.5C 791.817,262.863 791.15,263.196 790.5,263.5C 789.796,259.197 791.13,255.697 794.5,253C 790.795,252.578 790.128,251.412 792.5,249.5C 792.833,249.5 793.167,249.5 793.5,249.5C 794.315,251.908 795.981,252.741 798.5,252C 797.167,251.333 796.167,250.333 795.5,249C 796.094,248.536 796.761,248.369 797.5,248.5 Z"/></g>
<g><path style="opacity:1" fill="#96aeb0" d="M 835.5,248.5 C 835.349,252.314 833.349,253.981 829.5,253.5C 832.086,252.585 834.086,250.918 835.5,248.5 Z"/></g>
<g><path style="opacity:1" fill="#78999d" d="M 810.5,244.5 C 812.631,245.314 814.964,245.814 817.5,246C 821.419,248.689 822.419,252.189 820.5,256.5C 820.189,257.478 819.522,258.145 818.5,258.5C 816.556,257.811 814.556,257.311 812.5,257C 811.183,255.233 809.516,253.899 807.5,253C 809.619,252.658 809.953,251.825 808.5,250.5C 808.5,249.833 808.833,249.5 809.5,249.5C 810.353,251.893 812.019,253.226 814.5,253.5C 814.402,256.248 815.402,256.914 817.5,255.5C 817.81,256.738 818.31,256.738 819,255.5C 819.994,248.329 816.827,245.329 809.5,246.5C 809.328,245.508 809.662,244.842 810.5,244.5 Z"/></g>
<g><path style="opacity:1" fill="#417379" d="M 809.5,249.5 C 814.836,248.185 817.503,250.185 817.5,255.5C 815.402,256.914 814.402,256.248 814.5,253.5C 812.019,253.226 810.353,251.893 809.5,249.5 Z"/></g>
<g><path style="opacity:1" fill="#a0b4b5" d="M 782.5,252.5 C 785.992,255.31 786.325,258.476 783.5,262C 782.833,262.667 782.167,262.667 781.5,262C 783.325,260.534 783.825,258.701 783,256.5C 782.282,257.451 781.449,257.617 780.5,257C 781.337,255.989 781.67,254.822 781.5,253.5C 781.5,252.833 781.833,252.5 782.5,252.5 Z"/></g>
<g><path style="opacity:1" fill="#5a8489" d="M 803.5,255.5 C 806.653,258.071 810.32,259.571 814.5,260C 810.683,261.804 806.85,263.638 803,265.5C 801.357,264.685 799.857,263.685 798.5,262.5C 798.249,260.83 797.582,259.33 796.5,258C 797.328,257.085 798.328,256.419 799.5,256C 798.833,255.667 798.167,255.333 797.5,255C 799.488,254.82 801.488,254.986 803.5,255.5 Z"/></g>
<g><path style="opacity:1" fill="#bbcccb" d="M 326.5,282.5 C 515.333,281.5 704.333,281.167 893.5,281.5C 893.5,293.5 893.5,305.5 893.5,317.5C 892.505,306.012 892.172,294.345 892.5,282.5C 703.833,282.5 515.167,282.5 326.5,282.5 Z"/></g>
<g><path style="opacity:1" fill="#627779" d="M 809.5,331.5 C 810.479,328.375 810.813,325.042 810.5,321.5C 812.833,321.5 815.167,321.5 817.5,321.5C 817.666,326.179 817.499,330.845 817,335.5C 814.958,337.604 812.458,338.771 809.5,339C 791.868,341.697 783.368,334.197 784,316.5C 791.366,302.049 802.199,298.882 816.5,307C 817.167,307.667 817.833,308.333 818.5,309C 817.167,310.333 815.833,311.667 814.5,313C 812.212,313.418 810.212,312.751 808.5,311C 796,308.833 790.833,314 793,326.5C 795.071,330.953 798.571,332.953 803.5,332.5C 805.59,332.427 807.59,332.094 809.5,331.5 Z"/></g>
<g><path style="opacity:1" fill="#5e7476" d="M 383.5,303.5 C 383.5,305.5 383.5,307.5 383.5,309.5C 379.629,309.185 375.962,309.518 372.5,310.5C 372.5,320.167 372.5,329.833 372.5,339.5C 369.833,339.5 367.167,339.5 364.5,339.5C 364.5,329.833 364.5,320.167 364.5,310.5C 360.5,310.5 356.5,310.5 352.5,310.5C 352.5,308.167 352.5,305.833 352.5,303.5C 362.833,303.5 373.167,303.5 383.5,303.5 Z"/></g>
<g><path style="opacity:1" fill="#617678" d="M 426.5,303.5 C 426.5,305.5 426.5,307.5 426.5,309.5C 420.31,309.177 414.31,309.51 408.5,310.5C 407.527,312.948 407.194,315.615 407.5,318.5C 413.167,318.5 418.833,318.5 424.5,318.5C 424.5,320.5 424.5,322.5 424.5,324.5C 419.167,324.5 413.833,324.5 408.5,324.5C 408.5,327.167 408.5,329.833 408.5,332.5C 414.833,332.5 421.167,332.5 427.5,332.5C 427.5,334.833 427.5,337.167 427.5,339.5C 418.167,339.5 408.833,339.5 399.5,339.5C 399.5,327.5 399.5,315.5 399.5,303.5C 408.5,303.5 417.5,303.5 426.5,303.5 Z"/></g>
<g><path style="opacity:1" fill="#617678" d="M 441.5,304.5 C 444.687,303.194 448.02,303.194 451.5,304.5C 453.808,307.975 456.308,311.308 459,314.5C 461.692,311.308 464.192,307.975 466.5,304.5C 469.5,303.167 472.5,303.167 475.5,304.5C 471.693,310.14 467.693,315.64 463.5,321C 468.078,326.823 472.412,332.823 476.5,339C 473.5,339.667 470.5,339.667 467.5,339C 464.301,335.434 461.467,331.6 459,327.5C 455.781,331.052 452.948,334.885 450.5,339C 447.446,339.821 444.446,339.655 441.5,338.5C 445.71,332.793 449.71,326.96 453.5,321C 450.038,315.049 446.038,309.549 441.5,304.5 Z"/></g>
<g><path style="opacity:1" fill="#5e7476" d="M 519.5,303.5 C 519.5,305.5 519.5,307.5 519.5,309.5C 515.629,309.185 511.962,309.518 508.5,310.5C 508.5,320.167 508.5,329.833 508.5,339.5C 505.833,339.5 503.167,339.5 500.5,339.5C 500.5,329.833 500.5,320.167 500.5,310.5C 496.5,310.5 492.5,310.5 488.5,310.5C 488.5,308.167 488.5,305.833 488.5,303.5C 498.833,303.5 509.167,303.5 519.5,303.5 Z"/></g>
<g><path style="opacity:1" fill="#677b7d" d="M 535.5,303.5 C 538.5,303.5 541.5,303.5 544.5,303.5C 544.5,315.5 544.5,327.5 544.5,339.5C 541.5,339.5 538.5,339.5 535.5,339.5C 535.5,327.5 535.5,315.5 535.5,303.5 Z"/></g>
<g><path style="opacity:1" fill="#64787a" d="M 572.5,332.5 C 577.975,333.489 583.642,333.822 589.5,333.5C 589.5,335.5 589.5,337.5 589.5,339.5C 580.833,339.5 572.167,339.5 563.5,339.5C 563.5,327.5 563.5,315.5 563.5,303.5C 566.5,303.5 569.5,303.5 572.5,303.5C 572.5,313.167 572.5,322.833 572.5,332.5 Z"/></g>
<g><path style="opacity:1" fill="#637879" d="M 605.5,303.5 C 612.508,303.334 619.508,303.5 626.5,304C 635.27,306.702 638.437,312.536 636,321.5C 634.01,325.49 630.843,327.99 626.5,329C 622.514,329.499 618.514,329.666 614.5,329.5C 614.5,332.833 614.5,336.167 614.5,339.5C 611.5,339.5 608.5,339.5 605.5,339.5C 605.5,327.5 605.5,315.5 605.5,303.5 Z"/></g>
<g><path style="opacity:1" fill="#63787a" d="M 681.5,303.5 C 681.5,305.5 681.5,307.5 681.5,309.5C 675.31,309.177 669.31,309.51 663.5,310.5C 663.5,313.5 663.5,316.5 663.5,319.5C 668.833,319.5 674.167,319.5 679.5,319.5C 679.5,321.833 679.5,324.167 679.5,326.5C 674.167,326.5 668.833,326.5 663.5,326.5C 663.5,330.833 663.5,335.167 663.5,339.5C 660.5,339.5 657.5,339.5 654.5,339.5C 654.5,327.5 654.5,315.5 654.5,303.5C 663.5,303.5 672.5,303.5 681.5,303.5 Z"/></g>
<g><path style="opacity:1" fill="#64787a" d="M 707.5,332.5 C 712.975,333.489 718.642,333.822 724.5,333.5C 724.5,335.5 724.5,337.5 724.5,339.5C 715.833,339.5 707.167,339.5 698.5,339.5C 698.5,327.5 698.5,315.5 698.5,303.5C 701.5,303.5 704.5,303.5 707.5,303.5C 707.5,313.167 707.5,322.833 707.5,332.5 Z"/></g>
<g><path style="opacity:1" fill="#617678" d="M 767.5,303.5 C 767.5,305.5 767.5,307.5 767.5,309.5C 761.31,309.177 755.31,309.51 749.5,310.5C 748.527,312.948 748.194,315.615 748.5,318.5C 754.167,318.5 759.833,318.5 765.5,318.5C 765.5,320.5 765.5,322.5 765.5,324.5C 760.167,324.5 754.833,324.5 749.5,324.5C 749.5,327.167 749.5,329.833 749.5,332.5C 755.833,332.5 762.167,332.5 768.5,332.5C 768.5,334.833 768.5,337.167 768.5,339.5C 759.167,339.5 749.833,339.5 740.5,339.5C 740.5,327.5 740.5,315.5 740.5,303.5C 749.5,303.5 758.5,303.5 767.5,303.5 Z"/></g>
<g><path style="opacity:1" fill="#617678" d="M 863.5,303.5 C 863.5,305.5 863.5,307.5 863.5,309.5C 857.31,309.177 851.31,309.51 845.5,310.5C 844.527,312.948 844.194,315.615 844.5,318.5C 850.167,318.5 855.833,318.5 861.5,318.5C 861.5,320.5 861.5,322.5 861.5,324.5C 856.167,324.5 850.833,324.5 845.5,324.5C 845.5,327.167 845.5,329.833 845.5,332.5C 851.833,332.5 858.167,332.5 864.5,332.5C 864.5,334.833 864.5,337.167 864.5,339.5C 855.167,339.5 845.833,339.5 836.5,339.5C 836.5,327.5 836.5,315.5 836.5,303.5C 845.5,303.5 854.5,303.5 863.5,303.5 Z"/></g>
<g><path style="opacity:1" fill="#859495" d="M 383.5,303.5 C 384.468,305.607 384.802,307.941 384.5,310.5C 380.5,310.5 376.5,310.5 372.5,310.5C 375.962,309.518 379.629,309.185 383.5,309.5C 383.5,307.5 383.5,305.5 383.5,303.5 Z"/></g>
<g><path style="opacity:1" fill="#94a0a0" d="M 426.5,303.5 C 427.468,305.607 427.802,307.941 427.5,310.5C 421.167,310.5 414.833,310.5 408.5,310.5C 414.31,309.51 420.31,309.177 426.5,309.5C 426.5,307.5 426.5,305.5 426.5,303.5 Z"/></g>
<g><path style="opacity:1" fill="#859495" d="M 519.5,303.5 C 520.468,305.607 520.802,307.941 520.5,310.5C 516.5,310.5 512.5,310.5 508.5,310.5C 511.962,309.518 515.629,309.185 519.5,309.5C 519.5,307.5 519.5,305.5 519.5,303.5 Z"/></g>
<g><path style="opacity:1" fill="#94a0a0" d="M 681.5,303.5 C 682.468,305.607 682.802,307.941 682.5,310.5C 676.167,310.5 669.833,310.5 663.5,310.5C 669.31,309.51 675.31,309.177 681.5,309.5C 681.5,307.5 681.5,305.5 681.5,303.5 Z"/></g>
<g><path style="opacity:1" fill="#94a0a0" d="M 767.5,303.5 C 768.468,305.607 768.802,307.941 768.5,310.5C 762.167,310.5 755.833,310.5 749.5,310.5C 755.31,309.51 761.31,309.177 767.5,309.5C 767.5,307.5 767.5,305.5 767.5,303.5 Z"/></g>
<g><path style="opacity:1" fill="#94a0a0" d="M 863.5,303.5 C 864.468,305.607 864.802,307.941 864.5,310.5C 858.167,310.5 851.833,310.5 845.5,310.5C 851.31,309.51 857.31,309.177 863.5,309.5C 863.5,307.5 863.5,305.5 863.5,303.5 Z"/></g>
<g><path style="opacity:1" fill="#f7f3ef" d="M 614.5,310.5 C 617.85,310.335 621.183,310.502 624.5,311C 629.414,314.171 629.747,317.837 625.5,322C 621.848,322.499 618.182,322.665 614.5,322.5C 614.5,318.5 614.5,314.5 614.5,310.5 Z"/></g>
<g><path style="opacity:1" fill="#aab2b2" d="M 408.5,310.5 C 408.5,312.833 408.5,315.167 408.5,317.5C 414.026,317.179 419.36,317.512 424.5,318.5C 418.833,318.5 413.167,318.5 407.5,318.5C 407.194,315.615 407.527,312.948 408.5,310.5 Z"/></g>
<g><path style="opacity:1" fill="#aab2b2" d="M 749.5,310.5 C 749.5,312.833 749.5,315.167 749.5,317.5C 755.026,317.179 760.36,317.512 765.5,318.5C 759.833,318.5 754.167,318.5 748.5,318.5C 748.194,315.615 748.527,312.948 749.5,310.5 Z"/></g>
<g><path style="opacity:1" fill="#aab2b2" d="M 845.5,310.5 C 845.5,312.833 845.5,315.167 845.5,317.5C 851.026,317.179 856.36,317.512 861.5,318.5C 855.833,318.5 850.167,318.5 844.5,318.5C 844.194,315.615 844.527,312.948 845.5,310.5 Z"/></g>
<g><path style="opacity:1" fill="#b3bab9" d="M 817.5,321.5 C 815.167,321.5 812.833,321.5 810.5,321.5C 810.813,325.042 810.479,328.375 809.5,331.5C 809.5,327.833 809.5,324.167 809.5,320.5C 812.385,320.194 815.052,320.527 817.5,321.5 Z"/></g>
<g><path style="opacity:1" fill="#609095" d="M 36.5,324.5 C 133.167,324.5 229.833,324.5 326.5,324.5C 326.5,337.833 326.5,351.167 326.5,364.5C 325.505,351.677 325.171,338.677 325.5,325.5C 228.999,325.833 132.665,325.499 36.5,324.5 Z"/></g>
<g><path style="opacity:1" fill="#849394" d="M 572.5,332.5 C 578.5,332.5 584.5,332.5 590.5,332.5C 590.802,335.059 590.468,337.393 589.5,339.5C 589.5,337.5 589.5,335.5 589.5,333.5C 583.642,333.822 577.975,333.489 572.5,332.5 Z"/></g>
<g><path style="opacity:1" fill="#849394" d="M 707.5,332.5 C 713.5,332.5 719.5,332.5 725.5,332.5C 725.802,335.059 725.468,337.393 724.5,339.5C 724.5,337.5 724.5,335.5 724.5,333.5C 718.642,333.822 712.975,333.489 707.5,332.5 Z"/></g>
</svg>
